
<svg width="97px" height="97px" viewBox="0 0 97 97" version="1.1" xmlns="http://www.w3.org/2000/svg" xmlns:xlink="http://www.w3.org/1999/xlink">
    <defs>
        <path d="M97,49.0987654 C97,21.7136296 75.2863704,0 47.9012346,0 C21.7136296,0 0,21.7136296 0,49.0987654 C0,75.2863704 21.7136296,97 47.9012346,97 C75.2863704,97 97,75.2863704 97,49.0987654 Z" id="path-1"></path>
    </defs>
    <g id="部门目标" stroke="none" stroke-width="1" fill="#46515D" fill-rule="evenodd">
        <g id="列表" transform="translate(-327.000000, -1033.000000)">
            <g id="新增" transform="translate(327.000000, 1033.000000)">
                <g id="Fill-">
                    <use fill="#FFFFFF" fill-rule="evenodd" xlink:href="#path-1"></use>
                    <path stroke="#EFEFF4" stroke-width="2" d="M96,49.0987654 C96,22.2659144 74.7340856,1 47.9012346,1 C22.0861651,1 1,22.4488941 1,49.0987654 C1,74.7340856 22.2659144,96 47.9012346,96 C74.5511059,96 96,74.9138349 96,49.0987654 Z"></path>
                </g>
                <path d="M22.9482759,50 C22.2551572,49.4 22,49.1321686 22,49 L22,47 C22,46.8718218 22.2525317,46.6 22.9482759,46 L46.6551724,46 L46.6551724,21 C47.2241379,20.2690749 47.4781159,20 47.6034483,20 L49.5,20 C49.6215483,20 49.8793103,20.2663062 50.4482759,21 L50.4482759,46 L74.1551724,46 C74.848291,46.6 75.1034483,46.8678314 75.1034483,47 L75.1034483,49 C75.1034483,49.1281782 74.8509166,49.4 74.1551724,50 L50.4482759,50 L50.4482759,75 C49.8793103,75.7309251 49.6253323,76 49.5,76 L47.6034483,76 C47.4819,76 47.2241379,75.7336938 46.6551724,75 L46.6551724,50 L22.9482759,50 Z" id="Fill-57" fill="#CCCCCC"></path>
            </g>
        </g>
    </g>
</svg>